<svg xmlns="http://www.w3.org/2000/svg" viewBox="0 0 512 512" fill="none">
  <!-- Maskable icon: 40% safe zone = content in inner 60% (307px), centered -->
  <defs>
    <linearGradient id="teal" x1="128" y1="80" x2="384" y2="432" gradientUnits="userSpaceOnUse">
      <stop offset="0%" stop-color="#22d3ee"/>
      <stop offset="50%" stop-color="#06b6d4"/>
      <stop offset="100%" stop-color="#0891b2"/>
    </linearGradient>
    <linearGradient id="bg" x1="0" y1="0" x2="512" y2="512" gradientUnits="userSpaceOnUse">
      <stop offset="0%" stop-color="#141a26"/>
      <stop offset="100%" stop-color="#0c111b"/>
    </linearGradient>
  </defs>
  <!-- Full background (maskable requires full bleed) -->
  <rect width="512" height="512" fill="url(#bg)"/>
  <!-- Tooth icon centered in safe zone (scaled from 64x64 to ~307x307, offset 102.5) -->
  <g transform="translate(102.5, 102.5) scale(4.8)">
    <path d="M22 15C18 15 14 19 14 25C14 32 19 38 23 43C25 46.5 27 51 29 51C30.5 51 31.2 47.5 32 44C32.8 47.5 33.5 51 35 51C37 51 39 46.5 41 43C45 38 50 32 50 25C50 19 46 15 42 15C38.5 15 36 17 34 19.5L32 22L30 19.5C28 17 25.5 15 22 15Z" fill="url(#teal)"/>
    <path d="M20 26C24 30 28 31.5 32 31.5C36 31.5 40 30 44 26" stroke="#0c111b" stroke-width="2" stroke-linecap="round" fill="none" opacity="0.3"/>
  </g>
</svg>
